<svg xmlns="http://www.w3.org/2000/svg" width="361.592" height="685.777" viewBox="0 0 361.592 685.777">
  <g id="Попугай" transform="translate(-15.726 -117.127)">
    <g id="Сгруппировать_756" data-name="Сгруппировать 756" transform="translate(72.655 600.549)">
      <rect id="Прямоугольник_163" data-name="Прямоугольник 163" width="231.861" height="150.059" transform="translate(18.317 52.296)" fill="#b73e38"/>
      <path id="Контур_26259" data-name="Контур 26259" d="M0,0H231.861V14.908H0Z" transform="translate(18.317 52.296)" fill="#992d28"/>
      <rect id="Прямоугольник_165" data-name="Прямоугольник 165" width="268.495" height="52.508" transform="translate(0 0)" fill="#f16e67"/>
      <rect id="Прямоугольник_166" data-name="Прямоугольник 166" width="32.203" height="202.355" transform="translate(118.146 0)" fill="#de1a00"/>
    </g>
    <g id="Сгруппировать_777" data-name="Сгруппировать 777" transform="translate(206.902 477.148)">
      <path id="Контур_26208" data-name="Контур 26208" d="M754.337,243c-35.937-43.827-119.354,47.75-119.354,47.75l12.175,3.232C659.332,297.208,791.442,288.249,754.337,243Zm-97.03,44.988S719.095,243.322,731,262.4C737.964,273.561,699.8,290.575,657.307,287.984Z" transform="translate(-634.983 -171.171)" fill="#a61d0b"/>
      <path id="Контур_26209" data-name="Контур 26209" d="M735.948,205.132C686.692,163.9,632.833,318.018,632.833,318.018h12.6C658.027,318.018,802.445,260.79,735.948,205.132ZM653.7,305.671s52.8-72.5,64.669-64.154S695.443,293.325,653.7,305.671Z" transform="translate(-632.833 -198.123)" fill="#de1a00"/>
    </g>
    <g id="Сгруппировать_738" data-name="Сгруппировать 738" transform="translate(15.726 117.127)">
      <path id="Контур_26138" data-name="Контур 26138" d="M1813.042,1591.6s-29.659,140.741-75.577,211.826a9.03,9.03,0,0,0,9.918,13.644,92.566,92.566,0,0,0,56.355-41.956s57.062-15.084,76.166-176.51Z" transform="translate(-1735.976 -1152.802)" fill="#fffaab"/>
      <path id="Контур_26139" data-name="Контур 26139" d="M1825.442,1591.593s-9.132,43.327-25.083,94.028a101.839,101.839,0,0,1,44.693,18.17,512.694,512.694,0,0,1-28.913,71.323s7.591-2.016,18.157-12.389a342.379,342.379,0,0,0,16.814-54.282,114.15,114.15,0,0,1,11.526,10.916c11.807-26.248,23.039-64.666,29.669-120.754Z" transform="translate(-1748.377 -1152.8)" fill="#e3be8f"/>
      <g id="Сгруппировать_734" data-name="Сгруппировать 734" transform="translate(193.087 458.459)">
        <path id="Контур_26142" data-name="Контур 26142" d="M2048.876,1688.39s-1.933,9.036-8.471,11.727a16.643,16.643,0,0,0,2.309-12.752Z" transform="translate(-1987.698 -1629.706)" fill="#0b234d"/>
        <path id="Контур_26143" data-name="Контур 26143" d="M2038.259,1678.916s2.76,8.82-1.611,14.377a16.637,16.637,0,0,0-4.259-12.239Z" transform="translate(-1986.153 -1628.078)" fill="#0b234d"/>
        <path id="Контур_26144" data-name="Контур 26144" d="M1975.124,1615.951l17.77,15.043s-14.226,6.049-12.634,17.193c0,0,19.422-10.507,26.745-8.278s9.363,32.157,19.262,34.386c0,0,1.111,4.76,3.689,6.05,2.866,1.432,6.545-1.1,9.393-6.369,0,0,20.986-13.213,13.187-35.023-7.568-21.158-46.8-10.189-46.8-10.189l-19.144-12.814Z" transform="translate(-1975.124 -1615.951)" fill="#34578c"/>
        <g id="Сгруппировать_733" data-name="Сгруппировать 733" transform="translate(40.636 11.86)">
          <path id="Контур_26145" data-name="Контур 26145" d="M2056.44,1672.39c7.689-40.557-17.974-41.75-17.974-41.75,25.353,6.842,13.081,46.166,13.081,46.166S2053.989,1675.952,2056.44,1672.39Z" transform="translate(-2027.96 -1630.64)" fill="#1e4273"/>
          <path id="Контур_26146" data-name="Контур 26146" d="M2025.454,1632.118c17.431,8.835,10.505,45.292,10.505,45.292s.952,4.054,3.127,5.691C2046.7,1634.109,2025.454,1632.118,2025.454,1632.118Z" transform="translate(-2025.454 -1630.925)" fill="#1e4273"/>
        </g>
      </g>
      <path id="Контур_26147" data-name="Контур 26147" d="M2048.984,1493.046c-11.96,39.6-31.12,76.606-61.762,98.995-23.785,17.384-132.5,8.6-143.965-10.507l10.984-31.616C1955.968,1585.106,2025.371,1520.288,2048.984,1493.046Z" transform="translate(-1756.639 -1133.82)" fill="#fffaab"/>
      <path id="Контур_26148" data-name="Контур 26148" d="M2070.649,1314.483c-.879,34.348-4.871,84.973-19.045,131.911-23.613,27.241-93.016,92.06-194.744,56.872l77.523-223.093s5.291-12.7,13.086-29.343c9.475,2.579,29.038,11.443,51.713,41.914C2023.215,1325.028,2055.882,1319.316,2070.649,1314.483Z" transform="translate(-1759.259 -1087.168)" fill="#6a81a5"/>
      <path id="Контур_26149" data-name="Контур 26149" d="M2078.227,1112.72s-116.931-6.54-152.75-64.593c0,0-2.3,62.776,110.844,66.119,0,0-57.354,9.552-99.381-22.925,0,0,2.072,44.55,85.807,29.439,0,0-40.915,22.62-75.3,6.381,0,0,12.335,30.578,54.4,8.841-11.1,14.72-32.435,11.885-31.957,16.949.429,4.539,19.774,4.365,31.957-3.344Z" transform="translate(-1772.474 -1048.127)" fill="#fff414"/>
      <path id="Контур_26150" data-name="Контур 26150" d="M2131.628,1156.615c-54.465-7.393-105.834,7.336-124.9,13.812a99.287,99.287,0,0,1,11.92-15.244c29.61-29.305,78.019-35.188,99.664-18.149C2123.375,1141.026,2128.094,1147.98,2131.628,1156.615Z" transform="translate(-1788.125 -1063.426)" fill="#fff414"/>
      <path id="Контур_26151" data-name="Контур 26151" d="M2091.844,1255.753s1.051,16.39.42,41.436c-14.767,4.833-47.434,10.544-71.466-21.74-22.676-30.47-42.238-39.334-51.713-41.913,8.405-17.957,19.715-40.5,30.394-56.662,19.066-6.475,70.435-21.2,124.9-13.811C2135.974,1191.354,2134.943,1237.624,2091.844,1255.753Z" transform="translate(-1780.874 -1069.873)" fill="#fffaab"/>
      <path id="Контур_26152" data-name="Контур 26152" d="M1952.147,1236.046c-43.231,169.449-58.955,295.629,57.75,264.681a128.043,128.043,0,0,1-22.675,21.435c-23.785,17.385-132.5,8.6-143.965-10.507l10.984-31.617,77.523-223.092s5.292-12.7,13.086-29.343c8.4-17.957,19.715-40.5,30.393-56.661a99.355,99.355,0,0,1,11.92-15.244c13.43-13.3,30.719-21.76,47.645-25.466C2007.3,1144.2,1978.791,1165.8,1952.147,1236.046Z" transform="translate(-1756.639 -1063.94)" fill="#d4b69d" opacity="0.47" style="mix-blend-mode: multiply;isolation: isolate"/>
      <path id="Контур_26158" data-name="Контур 26158" d="M2134.442,1161.846c-9.091-2.043-22.559-4.017-41.137-4.832-39.888-1.751-79.28,28.175-69.409,58.568,12.038,37.069,65.271,41.268,78.21,39.382C2145.428,1236.733,2146.24,1190.1,2134.442,1161.846Z" transform="translate(-1791.135 -1069.085)" fill="#88a5d4"/>
      <g id="Сгруппировать_736" data-name="Сгруппировать 736" transform="translate(142.425 461.724)">
        <path id="Контур_26153" data-name="Контур 26153" d="M1984.555,1689.97s-1.933,9.036-8.471,11.727a16.637,16.637,0,0,0,2.308-12.752Z" transform="translate(-1924.647 -1633.274)" fill="#0b234d"/>
        <path id="Контур_26154" data-name="Контур 26154" d="M1973.938,1680.495s2.76,8.82-1.611,14.378a16.638,16.638,0,0,0-4.26-12.24Z" transform="translate(-1923.103 -1631.646)" fill="#0b234d"/>
        <path id="Контур_26155" data-name="Контур 26155" d="M1918.656,1619.994l5.311,13.054s-7.7,3.515-11.59,10.341l26.106-.85c7.323,2.229,13.867,31.581,23.765,33.81,0,0,1.111,4.761,3.69,6.049,2.866,1.433,6.544-1.1,9.392-6.368a31.834,31.834,0,0,0,8.278-35.022c-7.568-21.159-46.8-10.189-46.8-10.189l-6.686-10.825Z" transform="translate(-1912.377 -1619.994)" fill="#34578c"/>
        <g id="Сгруппировать_735" data-name="Сгруппировать 735" transform="translate(34.457 9.836)">
          <path id="Контур_26156" data-name="Контур 26156" d="M1990.828,1672.9c1.825-43.443-22.761-40.693-22.761-40.693,25.354,6.843,17.99,46.166,17.99,46.166A28.75,28.75,0,0,0,1990.828,1672.9Z" transform="translate(-1957.56 -1632.176)" fill="#1e4273"/>
          <path id="Контур_26157" data-name="Контур 26157" d="M1955.054,1633.7c17.433,8.836,15.414,45.292,15.414,45.292s.95,4.055,3.126,5.691C1976.587,1636.667,1955.054,1633.7,1955.054,1633.7Z" transform="translate(-1955.054 -1632.469)" fill="#1e4273"/>
        </g>
      </g>
      <path id="Контур_26159" data-name="Контур 26159" d="M2153.182,1158.861c-3.5-8.631-8.223-15.585-13.285-19.578l-.059-.042a9.5,9.5,0,0,0-5.673,3.857c-8.893,11.687-28.58,89.118-1.923,102.288C2163.849,1224.433,2163.65,1184.361,2153.182,1158.861Z" transform="translate(-1809.708 -1065.676)" fill="#fff" opacity="0.18" style="mix-blend-mode: overlay;isolation: isolate"/>
      <path id="Контур_26160" data-name="Контур 26160" d="M2158.855,1170.053s-44.315,31.475-3.84,60.787Z" transform="translate(-1813.402 -1071.61)" fill="#6a81a5"/>
      <path id="Контур_26161" data-name="Контур 26161" d="M2163.669,1227.766a70.793,70.793,0,0,1-7.546,11.5c-8.272-9.055-11.73-17.69-12.4-25.465C2153.907,1216.609,2160.02,1222.321,2163.669,1227.766Z" transform="translate(-1814.51 -1080.036)" fill="#00060a"/>
      <path id="Контур_26162" data-name="Контур 26162" d="M2168.9,1235.165a32.805,32.805,0,0,0-5.233-13.1c-3.649-5.446-9.762-11.157-19.944-13.966,14.652-10.316,22.753-18.435,27.2-23.917C2176.43,1193.673,2179.868,1209.8,2168.9,1235.165Z" transform="translate(-1814.51 -1074.331)" fill="#00192e"/>
      <path id="Контур_26163" data-name="Контур 26163" d="M2170.9,1181.458c-4.451,5.483-12.551,13.6-27.2,23.917-1.777-20.727,16.239-35.322,16.239-35.322A30.893,30.893,0,0,1,2170.9,1181.458Z" transform="translate(-1814.481 -1071.61)" fill="#afb575"/>
      <path id="Контур_26164" data-name="Контур 26164" d="M2087.46,1216.145c0,10.917-10.763,19.766-24.039,19.766s-24.038-8.849-24.038-19.766,10.761-19.766,24.038-19.766S2087.46,1205.229,2087.46,1216.145Z" transform="translate(-1794.414 -1076.681)" fill="#de1a00"/>
      <path id="Контур_26165" data-name="Контур 26165" d="M2114.107,1186.993a10.262,10.262,0,0,1-10.926,9.078,9.545,9.545,0,0,1-8.835-10.582,10.264,10.264,0,0,1,10.927-9.077A9.544,9.544,0,0,1,2114.107,1186.993Z" transform="translate(-1804.989 -1072.83)" fill="#00192e"/>
      <path id="Контур_26166" data-name="Контур 26166" d="M2107.772,1184.345c.2,1.284-.9,2.383-2.47,2.455a3.009,3.009,0,0,1-3.205-2.2c-.2-1.284.9-2.384,2.469-2.455A3.011,3.011,0,0,1,2107.772,1184.345Z" transform="translate(-1806.488 -1073.939)" fill="#fff"/>
      <path id="Контур_26167" data-name="Контур 26167" d="M2018.765,1395.915c-7.68,31.941-21.071,55.114-37.482,70a90.8,90.8,0,0,1-20.173,14.117s-5.751,24.051-25.141,41.493c-23.5,3.113-49.976,1.222-79.109-8.845l9.762-28.1a34.554,34.554,0,0,0,11.729-5.12,40.489,40.489,0,0,0,11.2-11.826,46.377,46.377,0,0,0,3.592-6.9,45.107,45.107,0,0,0,2.063-5.979,69.829,69.829,0,0,0,19.084-.764,52.3,52.3,0,0,0,9.59-2.981,43.972,43.972,0,0,0,8.253-4.7,41.349,41.349,0,0,0,11.577-13.181,46.578,46.578,0,0,0,3.515-7.7,40.69,40.69,0,0,0,1.8-6.821,49.679,49.679,0,0,0,14.1-4.47,38.046,38.046,0,0,0,12-9.265,41.1,41.1,0,0,0,7.279-12.093,45.724,45.724,0,0,0,2.846-12.34,23.31,23.31,0,0,0,8.635-1.758,22.576,22.576,0,0,0,7.507-5.272c3.993-4.26,6.209-9.3,7.813-14.4a63.673,63.673,0,0,0,2.58-15.741c.172-4.928-16.449-36.7-17.518-43.575C2009.728,1324.562,2028.26,1356.446,2018.765,1395.915Z" transform="translate(-1759.259 -1096.579)" fill="#243b5c"/>
      <path id="Контур_26168" data-name="Контур 26168" d="M2005.953,1365.27a95.892,95.892,0,0,1-3.246,18.053,164.853,164.853,0,0,1-16,38.117,136.422,136.422,0,0,1-21.042,27.677,105.475,105.475,0,0,1-15.219,12.765,77.583,77.583,0,0,1-8.8,5.232c-.557.282-.484.363-.638.928a83.945,83.945,0,0,1-5.62,14.557,87.322,87.322,0,0,1-16.075,23.132,68.707,68.707,0,0,1-31.812,18.522c-.832.21-1.526.129-2.018.783-.323.436-.654.872-.985,1.3q-1.974,2.532-4.061,4.974a181.177,181.177,0,0,1-15.559,16.132,149.534,149.534,0,0,1-23.746,17.932,98.014,98.014,0,0,1-29.995,12.232,76.171,76.171,0,0,1-8.106,1.268c.088-1.873.21-3.746.331-5.612q.509-7.739,1.2-15.461,1.029-11.772,2.374-23.52,1.684-14.763,3.852-29.47,2.495-16.931,5.667-33.757c.259-1.332.614-3.181.9-4.61.59.105,1.179.227,1.768.355-.565-.258-1.13-.524-1.687-.782,2.616-13.315,5.587-26.556,9.011-39.692,3.527-13.524,7.54-26.926,12.223-40.087q3.428-9.64,7.38-19.087c2.245-5.337,4.553-10.682,7.243-15.809a155.074,155.074,0,0,1,14.371-21.888c6.023-7.873,12.507-15.4,19.265-22.648q9.943-10.682,20.693-20.572c6.055-5.563,12.288-10.957,18.861-15.9,4.239-3.189,8.736-6.58,13.71-8.542a6.644,6.644,0,0,1,3.884-.678,14.589,14.589,0,0,1,2.43,1.106c1.413.678,2.817,1.388,4.2,2.139,2.8,1.494,5.531,3.125,8.179,4.861a105.031,105.031,0,0,1,26.232,24.6c1.687,2.261,3.294,4.578,4.795,6.96.009.08.025.161.041.258a1.167,1.167,0,0,1,.016-.169l.387.637a106.079,106.079,0,0,1,13.023,31.077A102.82,102.82,0,0,1,2005.953,1365.27Z" transform="translate(-1748.891 -1089.13)" fill="#6a81a5"/>
      <path id="Контур_26169" data-name="Контур 26169" d="M1937.178,1263.749c-23.459,19.391-58.093,56.642-70.607,83.885-16.161,35.169-27.089,77.446-34.406,116.245a.7.7,0,0,0-.039.191,947.078,947.078,0,0,0-14.041,112.272,79.048,79.048,0,0,1-15.054,3.057,864.412,864.412,0,0,1,14.271-112.233.674.674,0,0,1,.038-.192c7.317-37.4,18.245-78.153,34.406-112.042C1867.355,1322.206,1917.33,1274.466,1937.178,1263.749Z" transform="translate(-1748.892 -1089.656)" fill="#4a628a"/>
      <path id="Контур_26170" data-name="Контур 26170" d="M2029.423,1383.331c-8.922,31.617-24.931,55.019-41.34,69.9-2.043,1.853-4.089,3.553-6.113,5.138-2.178,1.7-4.356,3.248-6.5,4.643,15.779-14.939,30.928-37.768,39.526-68.219,7.545-26.745,3.113-56.948-12.361-81.822-.076-.572-.172-1.069-.267-1.489q-.056.372-.115.859A105.079,105.079,0,0,0,1956.7,1272.7c-2.159-.993-7.623,1.7-14.938,6.916,14.212-12.245,25.942-19.944,29.361-18.378a105.059,105.059,0,0,1,45.562,39.641c.039-.326.076-.612.115-.861.1.42.192.917.268,1.49C2032.536,1326.384,2036.969,1356.586,2029.423,1383.331Z" transform="translate(-1775.611 -1089.134)" fill="#7792ba"/>
      <path id="Контур_26171" data-name="Контур 26171" d="M1995.262,1339.885a60.008,60.008,0,0,1-3.423,18.242c-1.9,5.22-4.705,10.2-9.009,13.8a21.413,21.413,0,0,1-7.283,4.037,23.406,23.406,0,0,1-4.475.946c-.661.074-1.4,0-2.05.14-.52.112-.17-.068-.32.277a2.61,2.61,0,0,0-.053.545c-.035.36-.084.717-.132,1.075a44.469,44.469,0,0,1-.932,4.917,3.634,3.634,0,0,0-.127,1.218c.046.873.086,1.746.125,2.62.325,7.515.437,15.039.4,22.561-.055,11.788-.5,23.579-1.448,35.329q-.4,4.893-.917,9.772-.265,2.467-.567,4.93a6.145,6.145,0,0,1-.4,2.337,11.168,11.168,0,0,1-1.9,1.68,92.645,92.645,0,0,1-14.612,10.446q-1.741.992-3.538,1.884c.716-1.985,1.4-3.979,2.083-5.976q2.652-7.776,5.1-15.622,3.342-10.7,6.288-21.527c2.139-7.907,4.095-15.869,5.727-23.9a187.911,187.911,0,0,0,3.4-22.68c.056-.728.1-1.464.161-2.188a41.959,41.959,0,0,1-9.775,17.882,40.268,40.268,0,0,1-16.483,10.436c-1.667.567-3.364,1.042-5.077,1.441q-1.307.3-2.625.551a3.951,3.951,0,0,0-.59.109c-.455.167-.2-.009-.346.349a9.72,9.72,0,0,0-.288,1.461,45.06,45.06,0,0,1-3.55,10.077,45.877,45.877,0,0,1-2.7,4.781q-.74,1.144-1.543,2.243c-.363.5-1.164,1.229-1.254,1.817a8.357,8.357,0,0,0,.1,1.6c.038.629.07,1.26.1,1.888a182.466,182.466,0,0,1-.591,24.177,198.641,198.641,0,0,1-6.493,35.914,185.313,185.313,0,0,1-6.982,20.427q-1.078,2.633-2.238,5.232-.3.658-.593,1.313a5.5,5.5,0,0,1-.608,1.314,3.645,3.645,0,0,1-.953.5q-.6.309-1.209.6a67.624,67.624,0,0,1-9.364,3.721q-2.538.795-5.132,1.387c.843-1.387,1.626-2.813,2.4-4.24,2.165-4,4.178-8.075,6.09-12.2q4.419-9.527,8.119-19.367,4.8-12.686,8.486-25.752a319.482,319.482,0,0,0,7.166-31.2q.38-2.151.732-4.308a42.341,42.341,0,0,1-18.061,11.966,59.89,59.89,0,0,1-22.906,2.675q-.624-.036-1.247-.08c-.261-.02-.52-.039-.78-.06-.464-.038-.319-.1-.545.258a5.114,5.114,0,0,0-.335,1.169q-.243.792-.52,1.574a50.141,50.141,0,0,1-2.172,5.251,45.815,45.815,0,0,1-5.592,8.818,36.521,36.521,0,0,1-16.265,11.675,34.219,34.219,0,0,1-20.654.525c-2.534-.747-5.015-1.7-7.469-2.668-1.213-.482-2.422-.977-3.618-1.5-.231-.1-1.277-.441-1.258-.669.016-.17,1.566.211,1.815.265,5.651,1.229,11.122,2.66,16.961,2.563a31.576,31.576,0,0,0,10.978-1.994,33.073,33.073,0,0,0,9.278-5.478c5.476-4.576,9.567-10.736,12.628-17.128q1.21-2.528,2.181-5.161l.388-1.054c.158-.426.065-.417.438-.448a7.456,7.456,0,0,1,1.289.149c.764.076,1.533.115,2.3.154q2.937.148,5.879.063c7.487-.231,15.173-1.672,21.8-5.3a38.975,38.975,0,0,0,14.789-14.334,44.454,44.454,0,0,0,5.542-15.124c.087-.516.059-1.6.44-1.842a4.262,4.262,0,0,1,1.32-.17q.89-.118,1.776-.261a54.639,54.639,0,0,0,5.421-1.156,40.6,40.6,0,0,0,9.813-4.033,37.988,37.988,0,0,0,14.266-14.787,45.862,45.862,0,0,0,4.053-10.121,25.406,25.406,0,0,0,1.031-5.362c.008-.241-.164-.877-.037-1.069.1-.156.678-.112.9-.126a20.011,20.011,0,0,0,16.458-8.963c4.4-6.159,6.544-13.761,8.085-21.075a66.953,66.953,0,0,0,1.282-7.378c.207-2.146.331-4.3.446-6.451.273-5.068.448-10.142.746-15.209.112-1.9.2-3.818.49-5.7a75.48,75.48,0,0,1,1.243,12.12q.4,6.677.533,13.37C1995.292,1336.5,1995.321,1338.195,1995.262,1339.885Z" transform="translate(-1752.3 -1098.433)" fill="#243b5c"/>
      <g id="Сгруппировать_737" data-name="Сгруппировать 737" transform="translate(343.467 101.546)" opacity="0.73" style="mix-blend-mode: overlay;isolation: isolate">
        <path id="Контур_26172" data-name="Контур 26172" d="M2164.228,1174.2c4.014,2.344,6.886,6.606,8.824,10.722a34.645,34.645,0,0,1,2.608,8.3,62.026,62.026,0,0,1-.936,25.3c-.489,2.1-1.035,4.184-1.553,6.274.356-2.063.724-4.126,1.067-6.192a82.021,82.021,0,0,0,.859-11.682c.181-8.394-1.805-17.367-6.906-24.174a19.349,19.349,0,0,0-5.8-5.187C2160.154,1176.262,2161.993,1172.87,2164.228,1174.2Z" transform="translate(-2161.377 -1173.897)" fill="#fff"/>
      </g>
    </g>
  </g>
</svg>
