<svg xmlns="http://www.w3.org/2000/svg" xmlns:xlink="http://www.w3.org/1999/xlink" width="1929" height="1089.609" viewBox="0 0 1929 1089.609">
  <defs>
    <filter id="Контур_27972" x="1699.08" y="752.321" width="229.92" height="337.288" filterUnits="userSpaceOnUse">
      <feOffset dy="3" input="SourceAlpha"/>
      <feGaussianBlur stdDeviation="3" result="blur"/>
      <feFlood flood-opacity="0.161"/>
      <feComposite operator="in" in2="blur"/>
      <feComposite in="SourceGraphic"/>
    </filter>
  </defs>
  <g id="Сгруппировать_1023" data-name="Сгруппировать 1023" transform="translate(0)">
    <path id="Контур_25665" data-name="Контур 25665" d="M121.126,495.057A662.241,662.241,0,0,1,332.239,581l64.728-129.54c-78.947-49.687-182.014-93.79-275.841-106.519Z" transform="translate(-121.126 -344.939)" fill="#fd6550" opacity="0.86"/>
    <path id="Контур_24877" data-name="Контур 24877" d="M296.391,496.216c.409-3.933,2.649-7.534,6.542-10.485,6.394-4.845,16.645-7.443,26.118-6.618,18.4,1.6,35.15,11.748,42.681,25.846,3.941,7.377,5.414,15.589,6.84,23.531,1.979,11.031,3.85,21.452,11.805,29.529,14.337,14.556,43.129,13.581,62.682,4.229a172.822,172.822,0,0,0,18.98-11.148c7.352-4.753,14.957-9.669,23.494-13.2,21.165-8.766,47.607-7.961,67.363,2.049,15.682,7.946,26.856,21.684,30.474,36.46,11.565,2.416,21.711,8.175,30.432,13.487,12.823,7.812,25.866,16.677,34.4,28.557,9.384,13.059,11.156,28.327,4.629,39.847l-3.433-1.355c5.993-10.576,4.288-24.7-4.452-36.861-8.189-11.4-20.885-20.013-33.387-27.628-8-4.874-17.227-10.135-27.49-12.606a41.809,41.809,0,0,1,.472,9.478,28.852,28.852,0,0,1-11.4,20.913,21.026,21.026,0,0,1-14.158,3.921,18.15,18.15,0,0,1-14.023-8.549,16.7,16.7,0,0,1-.106-18.111c6.976-10.333,22.676-13.344,34.448-11.789-3.728-13.42-14.061-25.8-28.386-33.054-18.669-9.46-43.675-10.214-63.7-1.919-8.2,3.4-15.651,8.213-22.858,12.871A175.664,175.664,0,0,1,454.948,565,78.1,78.1,0,0,1,419.3,572.32c-13.447-.533-24.463-4.783-31.855-12.288-8.623-8.756-10.659-20.1-12.628-31.073-1.387-7.731-2.822-15.727-6.551-22.71-6.989-13.083-22.536-22.5-39.608-23.984-8.317-.724-17.627,1.612-23.17,5.812-3.545,2.686-5.4,5.991-5.367,9.562l-3.8.025A12.657,12.657,0,0,1,296.391,496.216ZM590.1,579.042c-.369-.06-.737-.116-1.109-.168-10.539-1.471-24.679,1.087-30.816,10.178-2.913,4.313-2.846,10.239.17,15.1A14.355,14.355,0,0,0,569.376,611a16.6,16.6,0,0,0,11.306-3.176c5.635-4.018,9.576-11.352,10.07-18.678A39.57,39.57,0,0,0,590.1,579.042Z" transform="translate(-279.321 -422.236)" fill="#fff"/>
    <g transform="matrix(1, 0, 0, 1, 0, 0)" filter="url(#Контур_27972)">
      <path id="Контур_27972-2" data-name="Контур 27972" d="M-2.293,79.643c17.42,99.042,45.446,157.085,100.25,239.645L204.882,187.247C150.079,104.688,159.515,98.122,145.476,0H-7.038Z" transform="matrix(-1, 0, 0, -1, 1912.96, 1077.61)" fill="#f16e67"/>
    </g>
    <path id="Контур_27973" data-name="Контур 27973" d="M213.015,17.129a3.788,3.788,0,0,1-5.287.433C199.479,10.684,185.3,5.2,176.784,8.331c-3.847,1.416-6.332,4.475-7.542,9.327A32.035,32.035,0,0,1,185.975,33.27c1.215,2.584,4.9,10.429.706,14.408-1.307,1.231-4.288,2.886-9.56.136-7.02-3.66-15.576-13.868-15.994-24.955a31.114,31.114,0,0,0-4.1-.622c-9.212-.781-17.3,2.488-21.673,8.7-.2.287-.394.577-.582.866,10.407,6.882,18.462,18.746,17.844,33.64-.334,8.135-3.849,10.873-6.74,11.743-4.829,1.449-10.639-1.659-15.54-8.317-6.374-8.661-9.81-21.651-5.434-33.936a31.238,31.238,0,0,0-5.42-1.706c-9.678-2.078-18.056.915-23.536,8.091,8.51,7.341,14.4,18.413,13.005,31.461-.875,8.173-4.236,10.95-6.91,11.836-2.01.67-6.087,1.053-10.785-3.892-6.975-7.347-11.415-22.384-5.909-35.785.219-.531.447-1.05.682-1.563a31.016,31.016,0,0,0-7.516-3.259c-9.924-2.77-18.8.232-24.543,8.1a56.507,56.507,0,0,1,8.972,13.706c4.477,9.943,4.121,18.469-.965,24.016C55.2,93.3,50.359,92.57,47.488,90.663c-9.306-6.185-5.773-35.4-3.076-41l.185-.378c-4.513-4.144-9.277-6.839-12.916-6.818-6.042.04-10.859,4.426-13.843,8.075C10.393,59.687,5.973,74.8,7.986,84.221a3.722,3.722,0,0,1-2.9,4.412A3.759,3.759,0,0,1,.628,85.762c-2.462-11.522,2.525-29.045,11.35-39.894,5.77-7.027,12.537-10.805,19.656-10.849,5.468-.035,11.515,3.123,16.977,7.854,7.637-9.661,19.29-13.46,31.946-9.927a39.209,39.209,0,0,1,9.293,3.994c7.206-9.565,18.519-13.723,31.228-10.992a38.445,38.445,0,0,1,7.08,2.275q.484-.77,1.016-1.528c5.883-8.454,16.566-12.888,28.5-11.876a39.224,39.224,0,0,1,4.385.624c2.352-8.742,7.757-12.49,12.113-14.089,11.628-4.277,28.47,2.227,38.41,10.515a3.7,3.7,0,0,1,.452,5.246Zm-43.939,8.739a25.7,25.7,0,0,0,5.572,10.35,21.3,21.3,0,0,0,6.333,5.194,23.37,23.37,0,0,0-1.83-5.005A23.868,23.868,0,0,0,169.077,25.868ZM131.6,38.641c-2.828,9.392-.076,19.193,4.817,25.842,3.265,4.436,6.4,5.839,7.279,5.578.253-.085,1.249-1.143,1.406-4.925C145.58,53.589,139.564,44.292,131.6,38.641ZM92.184,48.074c-4.3,10.884-.1,21.911,3.823,26.711,1.856,2.275,3.322,2.826,3.646,2.77.267-.122,1.373-1.406,1.819-5.565C102.485,62.536,98.392,54.05,92.184,48.074ZM51.7,84.493c.008-.01,1.448-.019,4.714-3.567,4.056-4.479,1.142-12.673-.342-15.973a47.379,47.379,0,0,0-5.8-9.489C47.79,64.615,48.89,83.136,51.7,84.493Z" transform="translate(1764.064 1077.609) rotate(-90)" fill="#fff"/>
  </g>
</svg>
