<svg xmlns="http://www.w3.org/2000/svg" width="387.406" height="236.058" viewBox="0 0 387.406 236.058">
  <g id="Сгруппировать_1023" data-name="Сгруппировать 1023" transform="translate(0)">
    <path id="Контур_25665" data-name="Контур 25665" d="M121.126,495.057A662.241,662.241,0,0,1,332.239,581l64.728-129.54c-78.947-49.687-182.014-93.79-275.841-106.519Z" transform="translate(-121.126 -344.939)" fill="#fd6550" opacity="0.86"/>
    <path id="Контур_24877" data-name="Контур 24877" d="M296.391,496.216c.409-3.933,2.649-7.534,6.542-10.485,6.394-4.845,16.645-7.443,26.118-6.618,18.4,1.6,35.15,11.748,42.681,25.846,3.941,7.377,5.414,15.589,6.84,23.531,1.979,11.031,3.85,21.452,11.805,29.529,14.337,14.556,43.129,13.581,62.682,4.229a172.822,172.822,0,0,0,18.98-11.148c7.352-4.753,14.957-9.669,23.494-13.2,21.165-8.766,47.607-7.961,67.363,2.049,15.682,7.946,26.856,21.684,30.474,36.46,11.565,2.416,21.711,8.175,30.432,13.487,12.823,7.812,25.866,16.677,34.4,28.557,9.384,13.059,11.156,28.327,4.629,39.847l-3.433-1.355c5.993-10.576,4.288-24.7-4.452-36.861-8.189-11.4-20.885-20.013-33.387-27.628-8-4.874-17.227-10.135-27.49-12.606a41.809,41.809,0,0,1,.472,9.478,28.852,28.852,0,0,1-11.4,20.913,21.026,21.026,0,0,1-14.158,3.921,18.15,18.15,0,0,1-14.023-8.549,16.7,16.7,0,0,1-.106-18.111c6.976-10.333,22.676-13.344,34.448-11.789-3.728-13.42-14.061-25.8-28.386-33.054-18.669-9.46-43.675-10.214-63.7-1.919-8.2,3.4-15.651,8.213-22.858,12.871A175.664,175.664,0,0,1,454.948,565,78.1,78.1,0,0,1,419.3,572.32c-13.447-.533-24.463-4.783-31.855-12.288-8.623-8.756-10.659-20.1-12.628-31.073-1.387-7.731-2.822-15.727-6.551-22.71-6.989-13.083-22.536-22.5-39.608-23.984-8.317-.724-17.627,1.612-23.17,5.812-3.545,2.686-5.4,5.991-5.367,9.562l-3.8.025A12.657,12.657,0,0,1,296.391,496.216ZM590.1,579.042c-.369-.06-.737-.116-1.109-.168-10.539-1.471-24.679,1.087-30.816,10.178-2.913,4.313-2.846,10.239.17,15.1A14.355,14.355,0,0,0,569.376,611a16.6,16.6,0,0,0,11.306-3.176c5.635-4.018,9.576-11.352,10.07-18.678A39.57,39.57,0,0,0,590.1,579.042Z" transform="translate(-279.321 -422.236)" fill="#fff"/>
  </g>
</svg>
