<svg xmlns="http://www.w3.org/2000/svg" xmlns:xlink="http://www.w3.org/1999/xlink" width="344.046" height="359.702" viewBox="0 0 344.046 359.702">
  <defs>
    <filter id="Контур_27963" x="0" y="0" width="344.046" height="359.702" filterUnits="userSpaceOnUse">
      <feOffset dy="3" input="SourceAlpha"/>
      <feGaussianBlur stdDeviation="3" result="blur"/>
      <feFlood flood-opacity="0.161"/>
      <feComposite operator="in" in2="blur"/>
      <feComposite in="SourceGraphic"/>
    </filter>
  </defs>
  <g id="Сгруппировать_1022" data-name="Сгруппировать 1022" transform="translate(-1721.773 -836.818)">
    <g transform="matrix(1, 0, 0, 1, 1721.77, 836.82)" filter="url(#Контур_27963)">
      <path id="Контур_27963-2" data-name="Контур 27963" d="M0,70.795c12.664,87.857,33.765,145.624,83.2,219.547L184.428,166.261C134.992,92.34,143.892,87.857,131.227,0L0,33.088Z" transform="translate(9 122.06) rotate(-39)" fill="#f16e67"/>
    </g>
    <path id="Контур_27964" data-name="Контур 27964" d="M210.771,17.124a3.721,3.721,0,0,1-5.231.433c-8.163-6.876-22.188-12.359-30.619-9.229-3.806,1.415-6.265,4.473-7.462,9.325A31.833,31.833,0,0,1,184.015,33.26c1.2,2.584,4.847,10.426.7,14.4-1.293,1.231-4.242,2.885-9.459.136-6.946-3.659-15.412-13.864-15.825-24.948a30.493,30.493,0,0,0-4.057-.622c-9.115-.781-17.114,2.487-21.445,8.695-.2.287-.389.577-.575.865,10.3,6.88,18.268,18.741,17.656,33.63-.33,8.132-3.808,10.87-6.669,11.74-4.778,1.449-10.527-1.659-15.377-8.315-6.307-8.658-9.706-21.645-5.377-33.927a30.679,30.679,0,0,0-5.363-1.705c-9.576-2.077-17.866.915-23.288,8.089,8.421,7.339,14.253,18.407,12.868,31.452-.865,8.171-4.191,10.947-6.837,11.833-1.989.67-6.023,1.053-10.671-3.891C83.394,73.351,79,58.319,84.449,44.922c.216-.531.442-1.05.675-1.563A30.527,30.527,0,0,0,77.687,40.1c-9.82-2.77-18.6.232-24.285,8.1A56.553,56.553,0,0,1,62.28,61.9c4.43,9.94,4.077,18.463-.955,24.009-6.7,7.361-11.5,6.63-14.336,4.723-9.208-6.183-5.712-35.388-3.044-40.992l.183-.378c-4.465-4.143-9.179-6.837-12.78-6.816-5.978.04-10.745,4.425-13.7,8.073C10.284,59.67,5.91,74.776,7.9,84.2a3.721,3.721,0,0,1-7.281,1.54C-1.815,74.218,3.12,56.7,11.852,45.854,17.56,38.83,24.257,35.052,31.3,35.009c5.411-.035,11.394,3.122,16.8,7.852C55.656,33.2,67.186,29.4,79.708,32.936A38.587,38.587,0,0,1,88.9,36.929c7.13-9.562,18.324-13.719,30.9-10.988a37.761,37.761,0,0,1,7.005,2.274q.479-.769,1-1.527c5.821-8.451,16.391-12.884,28.2-11.873a38.438,38.438,0,0,1,4.339.624c2.327-8.74,7.676-12.487,11.985-14.085,11.506-4.276,28.17,2.226,38.005,10.512a3.723,3.723,0,0,1,.447,5.244ZM167.3,25.86a25.773,25.773,0,0,0,5.513,10.347,21.119,21.119,0,0,0,6.267,5.193A24.435,24.435,0,0,0,167.3,25.86ZM130.213,38.629c-2.8,9.389-.075,19.188,4.766,25.834,3.231,4.435,6.332,5.837,7.2,5.576.25-.085,1.236-1.143,1.391-4.924C144.046,53.573,138.094,44.279,130.213,38.629Zm-39,9.431c-4.254,10.881-.095,21.9,3.782,26.7,1.837,2.274,3.287,2.826,3.608,2.77.264-.122,1.359-1.406,1.8-5.563C101.406,62.518,97.356,54.035,91.212,48.06ZM51.157,84.469c.008-.01,1.433-.019,4.664-3.566,4.013-4.478,1.13-12.67-.338-15.968a47.457,47.457,0,0,0-5.739-9.487c-2.457,9.148-1.369,27.663,1.414,29.021Z" transform="matrix(-0.875, -0.485, 0.485, -0.875, 1936.398, 1066.102)" fill="#fff"/>
  </g>
</svg>
