<svg xmlns="http://www.w3.org/2000/svg" xmlns:xlink="http://www.w3.org/1999/xlink" width="1922.322" height="1080.422" viewBox="0 0 1922.322 1080.422">
  <defs>
    <clipPath id="clip-path">
      <rect id="Прямоугольник_5" data-name="Прямоугольник 5" width="1922.321" height="1080" fill="#d1c7fb"/>
    </clipPath>
    <filter id="Контур_90" x="1222.979" y="102.485" width="26.498" height="20.149" filterUnits="userSpaceOnUse">
      <feOffset input="SourceAlpha"/>
      <feGaussianBlur stdDeviation="0.5" result="blur"/>
      <feFlood flood-color="#fff" flood-opacity="0.749"/>
      <feComposite operator="in" in2="blur"/>
      <feComposite in="SourceGraphic"/>
    </filter>
    <filter id="Контур_91" x="911.009" y="44.504" width="39.742" height="33.691" filterUnits="userSpaceOnUse">
      <feOffset input="SourceAlpha"/>
      <feGaussianBlur stdDeviation="0.5" result="blur-2"/>
      <feFlood flood-color="#fff" flood-opacity="0.749"/>
      <feComposite operator="in" in2="blur-2"/>
      <feComposite in="SourceGraphic"/>
    </filter>
    <filter id="Контур_92" x="1877.116" y="405.144" width="39.742" height="33.691" filterUnits="userSpaceOnUse">
      <feOffset input="SourceAlpha"/>
      <feGaussianBlur stdDeviation="0.5" result="blur-3"/>
      <feFlood flood-color="#fff" flood-opacity="0.749"/>
      <feComposite operator="in" in2="blur-3"/>
      <feComposite in="SourceGraphic"/>
    </filter>
    <filter id="Контур_94" x="1848.082" y="137.082" width="20.623" height="17.207" filterUnits="userSpaceOnUse">
      <feOffset input="SourceAlpha"/>
      <feGaussianBlur stdDeviation="0.5" result="blur-4"/>
      <feFlood flood-color="#fff" flood-opacity="0.749"/>
      <feComposite operator="in" in2="blur-4"/>
      <feComposite in="SourceGraphic"/>
    </filter>
    <filter id="Контур_95" x="1655.741" y="133.031" width="19.28" height="18.027" filterUnits="userSpaceOnUse">
      <feOffset input="SourceAlpha"/>
      <feGaussianBlur stdDeviation="0.5" result="blur-5"/>
      <feFlood flood-color="#fff" flood-opacity="0.749"/>
      <feComposite operator="in" in2="blur-5"/>
      <feComposite in="SourceGraphic"/>
    </filter>
    <filter id="Контур_96" x="1570.196" y="38.623" width="19.141" height="18.05" filterUnits="userSpaceOnUse">
      <feOffset input="SourceAlpha"/>
      <feGaussianBlur stdDeviation="0.5" result="blur-6"/>
      <feFlood flood-color="#fff" flood-opacity="0.749"/>
      <feComposite operator="in" in2="blur-6"/>
      <feComposite in="SourceGraphic"/>
    </filter>
    <filter id="Контур_97" x="1430.349" y="230.605" width="32.437" height="26.749" filterUnits="userSpaceOnUse">
      <feOffset input="SourceAlpha"/>
      <feGaussianBlur stdDeviation="0.5" result="blur-7"/>
      <feFlood flood-color="#fff" flood-opacity="0.749"/>
      <feComposite operator="in" in2="blur-7"/>
      <feComposite in="SourceGraphic"/>
    </filter>
    <filter id="Контур_99" x="1669.31" y="268.255" width="37.002" height="32.276" filterUnits="userSpaceOnUse">
      <feOffset input="SourceAlpha"/>
      <feGaussianBlur stdDeviation="0.5" result="blur-8"/>
      <feFlood flood-color="#fff" flood-opacity="0.749"/>
      <feComposite operator="in" in2="blur-8"/>
      <feComposite in="SourceGraphic"/>
    </filter>
    <filter id="Контур_100" x="1345.201" y="354.064" width="18.491" height="15.434" filterUnits="userSpaceOnUse">
      <feOffset input="SourceAlpha"/>
      <feGaussianBlur stdDeviation="0.5" result="blur-9"/>
      <feFlood flood-color="#fff" flood-opacity="0.749"/>
      <feComposite operator="in" in2="blur-9"/>
      <feComposite in="SourceGraphic"/>
    </filter>
    <filter id="Контур_101" x="926.475" y="250.876" width="18.186" height="15.797" filterUnits="userSpaceOnUse">
      <feOffset input="SourceAlpha"/>
      <feGaussianBlur stdDeviation="0.5" result="blur-10"/>
      <feFlood flood-color="#fff" flood-opacity="0.749"/>
      <feComposite operator="in" in2="blur-10"/>
      <feComposite in="SourceGraphic"/>
    </filter>
    <filter id="Контур_102" x="1851.427" y="321.331" width="18.721" height="14.474" filterUnits="userSpaceOnUse">
      <feOffset input="SourceAlpha"/>
      <feGaussianBlur stdDeviation="0.5" result="blur-11"/>
      <feFlood flood-color="#fff" flood-opacity="0.749"/>
      <feComposite operator="in" in2="blur-11"/>
      <feComposite in="SourceGraphic"/>
    </filter>
    <filter id="Контур_103" x="1753.879" y="496.26" width="16.748" height="14.586" filterUnits="userSpaceOnUse">
      <feOffset input="SourceAlpha"/>
      <feGaussianBlur stdDeviation="0.5" result="blur-12"/>
      <feFlood flood-color="#fff" flood-opacity="0.749"/>
      <feComposite operator="in" in2="blur-12"/>
      <feComposite in="SourceGraphic"/>
    </filter>
    <filter id="Контур_104" x="1639.354" y="411.285" width="17.017" height="14.271" filterUnits="userSpaceOnUse">
      <feOffset input="SourceAlpha"/>
      <feGaussianBlur stdDeviation="0.5" result="blur-13"/>
      <feFlood flood-color="#fff" flood-opacity="0.749"/>
      <feComposite operator="in" in2="blur-13"/>
      <feComposite in="SourceGraphic"/>
    </filter>
  </defs>
  <g id="Сгруппировать_1021" data-name="Сгруппировать 1021" transform="translate(-58.642 -51.099)">
    <path id="Контур_1" data-name="Контур 1" d="M1520.28,0H318.514c-18.193,22.007-33.808,45.915-45.4,71.254C225.771,174.71,294.249,278.89,404.463,305.747c112.361,27.38,220.408-48.385,332.929-43.838,88.836,3.59,190.749,46.735,208.842,140.8,17.6,91.491-68.975,161.564-87.153,248.019C843.515,724.776,859.8,816.7,952.2,827.412c92.506,10.725,137.629-80.749,207.751-117.95,228.71-121.341,7.865,250.352,235.51,243.231,45.146-1.412,90.852-18.2,124.816-46.882Z" transform="translate(460.683 51.099)" fill="#bcbafc" opacity="0.3" style="mix-blend-mode: overlay;isolation: isolate"/>
    <path id="Контур_2" data-name="Контур 2" d="M1376.433,0H348.44c0,256.028,296.924,39.517,545.349,173.681,132.989,71.824,81.436,153.643,104.3,251.489,32.307,138.24,205.527,135.807,318.466,80.759a210.564,210.564,0,0,0,59.876-43.146Z" transform="translate(604.53 51.099)" fill="#d1c7fb" opacity="0.5" style="mix-blend-mode: overlay;isolation: isolate"/>
    <g id="Сгруппировать_21" data-name="Сгруппировать 21" transform="translate(58.642 51.521)" clip-path="url(#clip-path)">
      <g id="Сгруппировать_20" data-name="Сгруппировать 20" transform="translate(912.509 39.701)" style="mix-blend-mode: overlay;isolation: isolate">
        <g transform="matrix(1, 0, 0, 1, -912.51, -40.12)" filter="url(#Контур_90)">
          <path id="Контур_90-2" data-name="Контур 90" d="M486.169,47.178,474.42,64.327h23.5Z" transform="translate(750.06 56.81)" fill="#fff"/>
        </g>
        <g transform="matrix(1, 0, 0, 1, -912.51, -40.12)" filter="url(#Контур_91)">
          <path id="Контур_91-2" data-name="Контур 91" d="M387.166,28.086,360.83,51.025,350.425,20.334Z" transform="translate(562.08 25.67)" fill="#fff"/>
        </g>
        <g transform="matrix(1, 0, 0, 1, -912.51, -40.12)" filter="url(#Контур_92)">
          <path id="Контур_92-2" data-name="Контур 92" d="M781.279,199.71l-26.337,22.94-10.405-30.691Z" transform="translate(1134.08 214.69)" fill="#fff"/>
        </g>
        <g transform="matrix(1, 0, 0, 1, -912.51, -40.12)" filter="url(#Контур_94)">
          <path id="Контур_94-2" data-name="Контур 94" d="M734.757,78.512,723.181,67l17.623-2.69Z" transform="translate(1126.4 74.28)" fill="#fff"/>
        </g>
        <g transform="matrix(1, 0, 0, 1, -912.51, -40.12)" filter="url(#Контур_95)">
          <path id="Контур_95-2" data-name="Контур 95" d="M662.664,68.679l-14.606,8.735-1.673-15.027Z" transform="translate(1010.86 72.14)" fill="#fff"/>
        </g>
        <g transform="matrix(1, 0, 0, 1, -912.51, -40.12)" filter="url(#Контур_96)">
          <path id="Контур_96-2" data-name="Контур 96" d="M612.388,32.662l1.349-15.05,14.792,8.51Z" transform="translate(959.31 22.51)" fill="#fff"/>
        </g>
        <g transform="matrix(1, 0, 0, 1, -912.51, -40.12)" filter="url(#Контур_97)">
          <path id="Контур_97-2" data-name="Контур 97" d="M586.3,113.234l-19.373,19.219-10.064-23.749Z" transform="translate(874.99 123.4)" fill="#fff"/>
        </g>
        <g transform="matrix(1, 0, 0, 1, -912.51, -40.12)" filter="url(#Контур_99)">
          <path id="Контур_99-2" data-name="Контур 99" d="M685.88,155.879l-34-8.92L678.045,126.6Z" transform="translate(1018.93 143.15)" fill="#fff"/>
        </g>
        <g transform="matrix(1, 0, 0, 1, -912.51, -40.12)" filter="url(#Контур_100)">
          <path id="Контур_100-2" data-name="Контур 100" d="M538.464,179.63l-15.492-2.256L533.037,167.2Z" transform="translate(823.73 188.37)" fill="#fff"/>
        </g>
        <g transform="matrix(1, 0, 0, 1, -912.51, -40.12)" filter="url(#Контур_101)">
          <path id="Контур_101-2" data-name="Контур 101" d="M367.576,131.062l-11.116-9.368,15.186-3.429Z" transform="translate(571.52 134.11)" fill="#fff"/>
        </g>
        <g transform="matrix(1, 0, 0, 1, -912.51, -40.12)" filter="url(#Контур_102)">
          <path id="Контур_102-2" data-name="Контур 102" d="M740.207,163.14H724.486l7.86-11.474Z" transform="translate(1128.44 171.16)" fill="#fff"/>
        </g>
        <g transform="matrix(1, 0, 0, 1, -912.51, -40.12)" filter="url(#Контур_103)">
          <path id="Контур_103-2" data-name="Контур 103" d="M700.175,234.616,696.492,246.2l-10.065-8.482Z" transform="translate(1068.95 263.14)" fill="#fff"/>
        </g>
        <g transform="matrix(1, 0, 0, 1, -912.51, -40.12)" filter="url(#Контур_104)">
          <path id="Контур_104-2" data-name="Контур 104" d="M653.877,203.508,639.86,205.59l4.869-11.271Z" transform="translate(1000.99 218.47)" fill="#fff"/>
        </g>
      </g>
    </g>
  </g>
</svg>
