<svg xmlns="http://www.w3.org/2000/svg" width="406.26" height="120.41" viewBox="0 0 406.26 120.41">
  <path id="Контур_26265" data-name="Контур 26265" d="M488.591,119.431H172.417c-19.9,0-36.035,7.082-36.035,15.817v88.777c0,2.929,1.821,5.671,4.984,8.023-5.5,3.418-13.576,5.977-23,7.123a92.831,92.831,0,0,0,11.188.67,84.558,84.558,0,0,0,22.308-2.829,71.5,71.5,0,0,0,20.556,2.829H488.591c19.9,0,36.035-7.082,36.035-15.817V135.248C524.625,126.513,508.492,119.431,488.591,119.431Z" transform="translate(-118.365 -119.431)" fill="#f16e67"/>
</svg>
